<svg xmlns="http://www.w3.org/2000/svg" xmlns:xlink="http://www.w3.org/1999/xlink" width="53" height="56" version="1.1" viewBox="0 0 53 56"><title>Artboard</title><desc>Created with Sketch.</desc><g id="Page-1" fill="none" fill-rule="evenodd" stroke="none" stroke-width="1"><g id="Artboard"><g id="Group-3" opacity=".5" transform="translate(6.000000, 3.000000)"><rect id="Boarder" width="40" height="40" x="0" y="0"/><rect id="Rectangle-7-Copy-5" width="5" height="5" x="8.333" y="26.667" fill="#FFF" fill-rule="nonzero"/><rect id="Rectangle-7-Copy-8" width="5" height="5" x="8.333" y="17.5" fill="#FFF" fill-rule="nonzero"/><rect id="Rectangle-7-Copy-6" width="5" height="5" x="17.5" y="26.667" fill="#FFF" fill-rule="nonzero"/><rect id="Rectangle-7-Copy-9" width="5" height="5" x="17.5" y="17.5" fill="#FFF" fill-rule="nonzero"/><rect id="Rectangle-7-Copy-7" width="5" height="5" x="26.667" y="26.667" fill="#FFF" fill-rule="nonzero"/><rect id="Rectangle-7-Copy-10" width="5" height="5" x="26.667" y="17.5" fill="#FFF" fill-rule="nonzero"/><rect id="Rectangle-7-Copy-13" width="5" height="5" x="8.333" y="8.333" fill="#FFF" fill-rule="nonzero"/><rect id="Rectangle-7-Copy-12" width="5" height="5" x="17.5" y="8.333" fill="#FFF" fill-rule="nonzero"/><rect id="Rectangle-7-Copy-11" width="5" height="5" x="26.667" y="8.333" fill="#FFF" fill-rule="nonzero"/><path id="Rectangle-29" fill="#FFF" fill-rule="nonzero" d="M5,35 L35,35 L35,5 L5,5 L5,35 Z M4.16666667,4.16666667 L35.8333333,4.16666667 L35.8333333,35.8333333 L4.16666667,35.8333333 L4.16666667,4.16666667 Z"/></g><rect id="Rectangle-11" width="46" height="4" x="4" y="50" fill="#FFF" opacity=".1" transform="translate(27.000000, 52.000000) scale(1, -1) translate(-27.000000, -52.000000)"/></g></g></svg>